# xmcd
#
# Track frame offsets:
#	150
#	9875
#	22825
#	33150
#	43625
#	53725
#	62575
#	73850
#	83375
#	94400
#	104050
#	115125
#	125200
#	133850
#	142775
#	154850
#	164625
#	178325
#	189300
#	201575
#	210950
#	224550
#	233275
#	244050
#	255150
#	266600
#	277750
#
# Disc length: 3854 seconds
# Revision: 0
# Processed by: cddbd v1.5.2PL0 Copyright (c) Steve Scherf et al.
# Submitted via: dBpowerAMP V12.0
#
DISCID=780f0c1b
DTITLE=Bonnie Owens - Best Of Bonnie Owens
DYEAR=1999
DGENRE=Country
TTITLE0=Gone Crazy
TTITLE1=That Little Boy Of Mine
TTITLE2=Stop The Worlfd
TTITLE3=Jealous Heart
TTITLE4=I'l Lalways Be Glad To Take You Back
TTITLE5=Beggin' To You
TTITLE6=Lead Me On
TTITLE7=Wabash Cannon Ball
TTITLE8=I Let A Stranger Buy The Wine
TTITLE9=I'll Look Over You
TTITLE10=Yes, I Love You Only
TTITLE11=You Don't Have Far To Go
TTITLE12=I Want To Be A Cowboy's Sweetheart
TTITLE13=Tonight I'll Throw A Party
TTITLE14=Lie A Little
TTITLE15=Just One Time
TTITLE16=Philadelphia Lawyer
TTITLE17=All of Me Belongs to You
TTITLE18=Consider the Children
TTITLE19=Number One Heel
TTITLE20=Why Don't Daddy Live Here Anymore
TTITLE21=Livin' on Your Love
TTITLE22=Souvenirs
TTITLE23=Medals for Mothers
TTITLE24=Don't Take Advantage of Me
TTITLE25=Somewhere Between
TTITLE26=Hi-Fi to Cry by
EXTD=
EXTT0=
EXTT1=
EXTT2=
EXTT3=
EXTT4=
EXTT5=
EXTT6=
EXTT7=
EXTT8=
EXTT9=
EXTT10=
EXTT11=
EXTT12=
EXTT13=
EXTT14=
EXTT15=
EXTT16=
EXTT17=
EXTT18=
EXTT19=
EXTT20=
EXTT21=
EXTT22=
EXTT23=
EXTT24=
EXTT25=
EXTT26=
PLAYORDER=
